<?xml version="1.0" standalone="no"?>
<!DOCTYPE svg PUBLIC "-//W3C//DTD SVG 20010904//EN"
 "http://www.w3.org/TR/2001/REC-SVG-20010904/DTD/svg10.dtd">
<svg version="1.0" xmlns="http://www.w3.org/2000/svg"
 width="404.000000pt" height="404.000000pt" viewBox="0 0 404.000000 404.000000"
 preserveAspectRatio="xMidYMid meet">
<metadata>
Created by potrace 1.14, written by Peter Selinger 2001-2017
</metadata>
<g transform="translate(0.000000,404.000000) scale(0.100000,-0.100000)"
fill="#000000" stroke="none">
<path d="M1867 3824 c-2 -2 -32 -6 -68 -9 -35 -2 -76 -7 -91 -10 -16 -3 -38
-7 -50 -9 -218 -41 -472 -143 -643 -259 -80 -54 -91 -62 -165 -123 -127 -104
-258 -250 -343 -379 -69 -107 -70 -109 -112 -195 -21 -41 -41 -83 -46 -92 -25
-49 -89 -247 -103 -318 -3 -14 -8 -36 -11 -50 -32 -138 -38 -481 -10 -610 3
-14 8 -41 11 -60 3 -19 15 -71 26 -115 11 -44 22 -90 25 -103 3 -12 9 -25 14
-28 5 -3 9 -13 9 -22 0 -39 167 -371 192 -380 4 -2 8 -8 8 -14 0 -18 125 -171
207 -255 214 -217 467 -370 758 -458 63 -19 143 -39 177 -45 35 -5 73 -12 84
-14 12 -2 61 -7 110 -11 184 -15 364 -2 534 36 25 6 52 12 61 14 197 41 546
220 686 352 13 12 23 20 23 16 0 -10 205 201 235 242 16 22 34 45 40 50 22 20
135 208 179 298 48 100 98 240 131 367 1 3 5 25 9 50 5 25 10 54 12 65 26 139
26 435 -1 580 -24 133 -37 184 -72 285 -31 91 -113 274 -125 278 -4 2 -8 8 -8
14 0 12 -117 191 -146 225 -10 11 -33 38 -50 60 -63 76 -177 186 -253 243 -18
14 -39 30 -46 37 -28 26 -204 132 -285 171 -99 48 -189 82 -292 111 -66 18
-92 24 -153 36 -11 2 -30 6 -42 9 -61 14 -405 31 -416 20z"/>
</g>
</svg>
